<?xml version="1.0" encoding="UTF-8" standalone="no"?>
<svg
   xmlns:dc="http://purl.org/dc/elements/1.1/"
   xmlns:cc="http://creativecommons.org/ns#"
   xmlns:rdf="http://www.w3.org/1999/02/22-rdf-syntax-ns#"
   xmlns:svg="http://www.w3.org/2000/svg"
   xmlns="http://www.w3.org/2000/svg"
   xmlns:sodipodi="http://sodipodi.sourceforge.net/DTD/sodipodi-0.dtd"
   xmlns:inkscape="http://www.inkscape.org/namespaces/inkscape"
   inkscape:version="1.0 (4035a4fb49, 2020-05-01)"
   sodipodi:docname="Lua-Logo.svg"
   id="svg12"
   version="1.1"
   height="3.3239999cm"
   width="3.3239999cm">
  <metadata
     id="metadata18">
    <rdf:RDF>
      <cc:Work
         rdf:about="">
        <dc:format>image/svg+xml</dc:format>
        <dc:type
           rdf:resource="http://purl.org/dc/dcmitype/StillImage" />
        <dc:title></dc:title>
      </cc:Work>
    </rdf:RDF>
  </metadata>
  <defs
     id="defs16" />
  <sodipodi:namedview
     inkscape:current-layer="svg12"
     inkscape:window-maximized="1"
     inkscape:window-y="-8"
     inkscape:window-x="-8"
     inkscape:cy="369.45358"
     inkscape:cx="935.62275"
     inkscape:zoom="0.20459056"
     units="cm"
     showgrid="false"
     id="namedview14"
     inkscape:window-height="715"
     inkscape:window-width="1366"
     inkscape:pageshadow="2"
     inkscape:pageopacity="0"
     guidetolerance="10"
     gridtolerance="10"
     objecttolerance="10"
     borderopacity="1"
     bordercolor="#666666"
     pagecolor="#ffffff" />
  <g
     transform="matrix(0.13273453,0,0,0.13273453,-0.03413433,-0.03444125)"
     id="g848">
    <path
       fill="#000080"
       d="m 835.5,473.6 c 0,-199.8 -162.2,-362 -362,-362 -199.8,0 -362,162.2 -362,362 0,199.8 162.2,362 362,362 199.8,0 362,-162.2 362,-362"
       id="path2" />
    <path
       fill="#ffffff"
       d="m 729.5,323.6 c 0,-58.5 -47.5,-106 -106,-106 -58.5,0 -106,47.5 -106,106 0,58.5 47.5,106 106,106 58.5,0 106,-47.5 106,-106"
       id="path4" />
    <path
       fill="#000080"
       d="m 941.5,111.5 c 0,-58.5 -47.5,-106 -106,-106 -58.5,0 -106,47.5 -106,106 0,58.5 47.5,106 106,106 58.5,0 106,-47.4 106,-106"
       id="path6" />
    <path
       d="m 258.1,627.8 h 117.3 v 26.7 H 227.8 V 417 h 30.3 z m 257.4,26.7 v -23.8 c -16,22.5 -31.9,31.3 -57,31.3 -33.2,0 -54.4,-18.2 -54.4,-46.6 V 483.8 h 27 v 120.9 c 0,20.5 13.7,33.6 35.2,33.6 28.3,0 46.6,-22.8 46.6,-57.7 v -96.8 h 27 v 170.7 z m 222.9,4.6 c -8.8,2.3 -13,2.9 -18.6,2.9 -17.6,0 -26.1,-7.8 -28,-25.1 -19.2,17.6 -36.5,25.1 -58,25.1 -34.5,0 -56,-19.5 -56,-50.5 0,-22.2 10.1,-37.5 30,-45.6 10.4,-4.2 16.3,-5.5 54.7,-10.4 21.5,-2.6 28.3,-7.5 28.3,-18.9 v -7.2 c 0,-16.3 -13.7,-25.4 -38.1,-25.4 -25.4,0 -37.8,9.4 -40.1,30.3 h -27.4 c 0.7,-16.9 3.9,-26.7 11.7,-35.5 11.4,-12.7 31.9,-19.9 56.7,-19.9 42,0 64.2,16.3 64.2,46.6 v 100.4 c 0,8.5 5.2,13.4 14.7,13.4 1.6,0 2.9,0 5.9,-0.7 z m -47.6,-89 c -9.1,4.2 -15,5.5 -43.7,9.4 -29,4.2 -41.1,13.4 -41.1,31.3 0,17.3 12.4,27.4 33.6,27.4 16,0 29.3,-5.2 40.4,-15.3 8.1,-7.5 10.8,-13 10.8,-22.2 z"
       fill="#ffffff"
       id="path8" />
    <path
       fill="none"
       stroke="#808080"
       stroke-width="10.861"
       stroke-miterlimit="10"
       stroke-dasharray="40.8475"
       d="m 890.6,261 a 468.35,468.35 0 0 1 51,212.5 C 941.6,731.9 731.9,941.6 473.5,941.6 215.1,941.6 5.4,731.9 5.4,473.5 5.4,215.1 215.1,5.4 473.5,5.4 a 468.49,468.49 0 0 1 236.2,63.9"
       id="path10" />
  </g>
</svg>
